<svg xmlns="http://www.w3.org/2000/svg" width="80.8567mm" height="39.385mm" viewBox="0 0 229.2002 111.6426">
  <g id="Layer_2" data-name="Layer 2">
    <g id="Layer_1-2" data-name="Layer 1">
      <g>
        <path d="M38.8105,21.1694C33.1406,29.36,32.0059,31.124,26.084,39.44c3.0234,2.646,3.9062,4.0323,4.0322,6.0484l.126,3.15c-.126,7.9379-.126,15.6245-.126,17.8925L29.99,88.709c0,1.89-.2519,7.8125-.5039,13.9868l.126,1.6382c-.5049,2.1421-1.3867,3.2764-2.6465,3.2764-1.7637,0-3.9062-1.7642-5.292-4.41-.8828-1.5122-1.5127-3.9063-2.1425-7.6865v-.63c2.3945-14.7432,2.8984-20.1611,4.41-45.8667a12.0576,12.0576,0,0,0-1.0078-5.5444C15.625,53.4272,11.2148,58.3413,1.7646,66.1538a3.9109,3.9109,0,0,1-1.3867.63C.126,66.7842,0,66.5317,0,65.9019c10.0811-12.8526,20.0352-29.2334,28.73-47l1.3867-3.6543a1.1357,1.1357,0,0,0,.126-.63c0-.7564,0-.7564-.8818-3.9063a8.4675,8.4675,0,0,1-.379-2.1421c0-1.0083.5049-1.5122,1.8907-1.5122,3.6543,2.0162,5.04,3.15,6.5527,4.7881,1.7637,2.0161,3.0234,4.5366,3.0234,6.0484a2.3377,2.3377,0,0,1-.2519.8823ZM65.5244,36.6685V65.3979l-.3789,27.0914-.2519,3.4023c-.126,4.6621-1.26,7.4346-3.15,7.4346-2.2685,0-4.0322-3.15-5.2929-9.7027l-.126-1.5122c.7559-12.0967.8818-14.4907,1.0088-22.8071A141.4405,141.4405,0,0,1,43.0947,85.5591l-.63.2519c-3.15-.1259-4.914-.8818-8.0644-3.4023-1.7647-1.3858-3.0244-2.898-3.0244-3.6538,0-.3784.3779-.63.8818-.63a10.4858,10.4858,0,0,1,1.6387.252l1.89.3784,1.6387-.5044c1.7637-.8818,3.4014-1.6382,3.9063-2.0161l8.3164-5.418c2.1416-1.3862,3.6533-2.52,4.788-3.2764a20.6823,20.6823,0,0,0,3.15-2.646V56.1992l.126-13.9868V21.7993c.126-.63-.6308-2.52-1.6387-4.41-1.26-2.1421-1.7636-3.2764-1.7636-3.9063,0-.5039.3779-.7558,1.3857-1.0078,5.166.7559,10.585,4.5361,10.711,7.4341l-.378,3.2763ZM46.875,52.293c4.7881.7563,7.56,1.89,7.56,3.2763,0,1.7642-5.6709,4.0323-10.4589,4.0323a35.3776,35.3776,0,0,1-6.9307-.8819c-1.0078-.1259-1.7637-.5044-1.7637-.7563q0-.567,1.1338-1.1338l4.7891-2.2681,4.7881-2.2685Zm-.63-16.2549c7.3086.3779,9.45,1.0083,9.45,2.6465,0,2.1421-5.7959,4.2842-12.2226,4.2842-1.5118,0-3.0245-.126-6.5528-.378-.7558-.3784-1.1338-.63-1.1338-.8823s.378-.5039,1.0078-.8818A66.6248,66.6248,0,0,1,45.7412,36.29Zm39.44-22.1773c-.1269,9.0728-.1269,10.4585-.6308,17.5152,5.293-2.2681,5.7969-2.646,10.333-6.6782l.7559-.252c7.3085.7559,11.2148,2.1421,11.2148,4.0322q0,1.5117-3.0244,1.89c-9.5762,2.1421-11.0889,2.52-19.2793,4.1582l-.126,8.3164-.126,8.3164c5.6709-2.2681,6.9307-3.0244,9.7032-5.67l.63-.252c8.1905.126,11.9707,1.3862,11.9707,4.1582,0,1.0078-.63,1.5122-2.1425,2.0161-10.584,2.3941-12.6006,2.772-20.1612,4.0323V72.4541c6.1748,0,6.5528,0,17.8936-3.15l1.1338.126c9.5762,2.394,11.3408,3.2759,11.3408,5.04,0,1.5122-1.7646,2.6465-5.5449,3.5283-2.3936.126-5.544.126-6.5518.126a57.45,57.45,0,0,1-18.2715-2.394l.126,12.4746.126,12.0967-.252,6.1743c-.7558,3.5283-1.89,5.1665-3.6543,5.1665-2.1416,0-2.7714-1.0083-4.2841-7.3086l-.252-4.0322V40.5747c0-3.4023-.2519-14.3652-.5039-25.7056v-1.26c-.252-4.9141-.3779-5.292-3.15-8.82a4.8919,4.8919,0,0,1-.7559-1.7642c0-.5039.378-1.0083,1.2608-1.3862,6.5517.8823,13.3564,5.2925,12.6006,8.3164Z" fill="#1d1d1b"/>
        <path d="M182.4512,27.8477c-9.45,2.142-14.2383,3.15-14.49,3.15-.63,0-4.0322-.7563-10.081-2.142-9.45,9.5766-14.3643,13.6088-23.6895,19.1528a3.7384,3.7384,0,0,1-1.3857.5039.334.334,0,0,1-.3779-.3779,1.5988,1.5988,0,0,1,.1259-.7559,147.3526,147.3526,0,0,0,25.2012-33.2661c2.3945-4.1582,3.78-7.1821,3.78-8.19,0-.252,0-.252-.8819-3.2759a2.778,2.778,0,0,1-.1259-1.0083c0-1.1338.63-1.6382,1.89-1.6382,3.9063,0,9.8291,6.3008,9.8291,10.459a8.5511,8.5511,0,0,1-1.8906,3.78c-.7559,1.0078-2.0156,2.52-3.4024,4.1582-1.3857,1.5117-3.4013,4.0322-6.0478,7.1821,1.6377.126,2.2676.126,3.4023.126,4.6622,0,23.1856-3.9063,44.7325-9.4507,5.9218-1.6377,5.9218-1.6377,8.5683-3.15h.7559c6.6787,2.646,10.8369,5.04,10.8369,6.3a7.732,7.732,0,0,1-.63,1.89,9.51,9.51,0,0,0-.5039,1.89c-1.0088,8.3165-1.8906,15.751-2.1426,18.397C223.0254,68.17,220.38,84.9292,217.23,95.1357c-2.0166,6.5523-7.5606,14.4908-10.0811,14.4908-.63,0-1.6377-.8824-2.52-2.0161-3.9062-5.0406-8.5684-9.0728-17.8935-15.1211a2.61,2.61,0,0,1-.8819-1.0079c0-.2519.252-.3779,1.1338-.3779,3.2764.3779,6.4268.8819,7.3086,1.0078l7.5605,1.26a7.7508,7.7508,0,0,0,1.7647.126c2.3935,0,3.5273-1.1343,4.6621-4.7886,4.5361-14.2388,6.6777-29.4854,9.7022-66.6577-.126-1.26-.378-1.5117-2.1416-1.5117-5.9229,1.26-12.0967,2.52-13.1055,2.7719ZM148.3037,75.3525c-3.0244-14.8691-4.0322-18.5229-5.5449-20.665a5.28,5.28,0,0,1-1.1338-2.52c0-1.1338.63-1.6377,1.8906-1.6377a26.534,26.534,0,0,1,6.93,1.7637c10.711-1.5117,29.99-7.0562,35.03-10.2066h.63c6.9306,3.0244,11.4668,6.0484,11.4668,7.6865a5.15,5.15,0,0,1-1.26,2.52c-2.2686,2.8984-2.7725,4.0322-6.6787,12.979-1.26,3.0239-2.0156,4.6621-2.1416,4.914-.7568,1.7642-.7568,1.89-.7568,2.2681l-.252,1.1343c-.252,1.1343-.5039,1.26-2.5195,1.26-.8828,0-1.2608,0-6.0489.126-3.78.126-5.9218.126-6.4257.252-2.8985.3779-5.167.63-8.8213,1.26l-5.7959.8824c-.126,2.7719-.63,3.5283-2.1426,3.5283-1.7637,0-3.1494-1.0083-6.0479-4.7886ZM158.51,54.8135c-.126,0-3.1494.7558-6.1739,1.3857,1.3858,5.1665,1.6377,6.4268,3.9063,17.2632,3.2764-.7563,6.3-1.5122,7.3086-1.6382,5.67-1.1338,9.3242-1.89,10.206-2.1421a9.7715,9.7715,0,0,1,3.2764-.7558,10.8866,10.8866,0,0,1,1.89.1259c1.8906-7.1826,2.1425-8.5688,3.78-17.2631,0-1.7642-.126-1.89-1.89-1.89-4.41.8824-7.3086,1.3863-8.3164,1.6382Z" fill="#1d1d1b"/>
      </g>
    </g>
  </g>
</svg>
